<?xml version="1.0" encoding="UTF-8"?>
<!DOCTYPE svg PUBLIC "-//W3C//DTD SVG 1.1//EN" "http://www.w3.org/Graphics/SVG/1.1/DTD/svg11.dtd">
<!-- Creator: CorelDRAW 2020 (64-Bit) -->
<?xml-stylesheet href="logo.css" type="text/css"?>
<svg xmlns="http://www.w3.org/2000/svg" xml:space="preserve" width="200mm" height="210mm" version="1.1" style="shape-rendering:geometricPrecision; text-rendering:geometricPrecision; image-rendering:optimizeQuality; fill-rule:evenodd; clip-rule:evenodd"
viewBox="0 0 297000 210000"
 xmlns:xlink="http://www.w3.org/1999/xlink"
 xmlns:xodm="http://www.corel.com/coreldraw/odm/2003">
 <g id="Слой_x0020_1">
  <metadata id="CorelCorpID_0Corel-Layer"/>
  <path class="fil0" d="M56634.4 152014.3l-7290.5 7290.5 -7970.5 -7970.6 7970.5 -7970.5 7290.5 7290.5 0 1360.1zm-24535.3 -9895.5l25 -25.1 7945.7 7945.5 7945.4 -7945.5 25.1 25.1 -7.8 -42.5 7.8 -7.6 -11.2 -11.2 -8025.8 -44242 -7893.2 44242.3 -11 10.9 7.6 7.6 -7.6 42.5zm996.2 -50.1l6974.5 -6974.3 6974.1 6974.3 -6974.1 6974.2 -6974.5 -6974.2zm-10270.2 9298.7l7970.5 -7970.4 7970.7 7970.4 -7970.7 7970.6 -7970.5 -7970.6zm9282.5 9232.7l7970.6 -7970.7 7970.5 7970.7 -7970.5 7970.6 -7970.6 -7970.6z"/>
  <path class="fil0" d="M128962.7 130691.6c2745.3,0 4970.7,2273.9 4970.7,5078.9 0,2805 -2225.4,5078.9 -4970.7,5078.9 -2745.5,0 -4970.9,-2273.9 -4970.9,-5078.9 0,-2805 2225.4,-5078.9 4970.9,-5078.9zm-7628.2 -22858.3l91370.1 0c6004,1149.2 8669.8,4998.2 8669.8,4998.2l0 -4998.2 52058 0 0 50985.7 -53432.6 0 0 -4889c-2176.7,3731.5 -5778.7,4889 -5778.7,4889l-18605.6 0c-9535.9,-3576.1 -13215.6,-11756.1 -13215.6,-11756.1l0 11756.1 -48198.2 0 -2643 -4189.6 -6633.8 0 -2384 4189.6 -29903.6 0 3524.2 -8180.2 -7566.6 0 0 8180.2 -30680.9 0 -25.5 -22162.6 -33.2 33.1 0 -3009.8 29.8 29.7 -29.8 -25876.1 29748.1 25.9c22803.4,0 24980.1,14511.3 24980.1,14511.3l8751 -14537.2zm129159.1 7723l15705.3 -37.5 0 37856.6 -16221.4 41.2 -1.4 -14175.6 -6426.5 0 0 14186.3 -14537.3 -11.7 0 -10927.1c1391.2,-2591.6 2189.9,-5609.6 2189.9,-8832.4 0,-3222.8 -798.7,-6240.9 -2189.9,-8832.5l0 -9310.5 14510.7 17.4 0 11505.3 6970.6 0 0 -11479.5zm-45582.7 -224.7c10377.3,0 18789.6,8447.1 18789.6,18867.4 0,10420.3 -8412.3,18867.3 -18789.6,18867.3 -8540.6,0 -15749,-5722 -18033.6,-13556l12722.2 0 0 -423.6c791.3,405.6 1695.3,635.8 2655.8,635.8 3109.5,0 5630.1,-2411 5630.1,-5385.1 0,-2974.2 -2520.6,-5385.3 -5630.1,-5385.3 -960.5,0 -1864.5,230.3 -2655.8,635.9l0 -13490.7c1684.4,-497.6 3466.6,-765.7 5311.4,-765.7zm-28825.2 37773.6l-14110.5 25.9 -2779.6 -5014.4 85.5 -15042.3 -10617.3 141.1 -5034.1 -9262.4 0 -8344 49856.6 51.8 0 17154.5 -17309.9 51.8 -90.7 20238zm-92057.2 -28562.1c2747.9,0 4975.4,2126.3 4975.4,4749 0,2622.8 -2227.5,4749 -4975.4,4749 -2747.7,0 -4975.2,-2126.2 -4975.2,-4749 0,-2622.7 2227.5,-4749 4975.2,-4749zm37989.2 24132.1l-2591.7 4509.1 -14977.8 0 21352.7 -37677.8 7514.8 0 21093.1 37729.3 -14407.5 0 -3472.4 -4560.6 -14511.2 0zm-41565.5 -5079.8l0 8743.7 -17309.8 0 0 -37196 26223.8 -51.8c0,0 16273.4,103.6 16169.7,13837.5 -103.6,13733.9 -14563,15236.9 -25083.7,14666.6z"/>
 </g>
</svg>
